<?xml version="1.0" encoding="utf-8"?>
<!-- Generator: Adobe Illustrator 25.0.0, SVG Export Plug-In . SVG Version: 6.00 Build 0)  -->
<svg version="1.1" id="Layer_1" xmlns="http://www.w3.org/2000/svg" xmlns:xlink="http://www.w3.org/1999/xlink" x="0px" y="0px"
	 viewBox="0 0 150 38" style="enable-background:new 0 0 150 38;" xml:space="preserve">
<style type="text/css">
	.st0{fill-rule:evenodd;clip-rule:evenodd;fill:#080808;}
</style>
<g id="Page-1">
	<g id="Desktop-Sell-Your-Music-1920" transform="translate(-885.000000, -2072.000000)">
		<g id="Store-Guide" transform="translate(140.000000, 1631.000000)">
			<g id="Vevo" transform="translate(662.000000, 360.000000)">
				<path id="vevo" class="st0" d="M173.77,115.37l-17.38-30.29h10.23l7.15,13.77l7.15-13.77h10.23L173.77,115.37z M112.94,115.37
					L95.56,85.08h10.23l7.15,13.77l7.15-13.77h10.23L112.94,115.37z M143.35,91.51c3.04,0.04,5.61,2.25,6.11,5.24h-12.22
					C138.05,93.47,140.22,91.51,143.35,91.51L143.35,91.51z M158.56,99.9c0.14-8.54-6.67-15.59-15.21-15.73
					c-8.54,0.15-15.35,7.19-15.21,15.73c-0.11,8.58,6.76,15.62,15.33,15.73c0.05,0,0.09,0,0.14,0c6.4,0.19,12.16-3.87,14.14-9.97
					h-9.16c-1.13,1.61-3.02,2.51-4.98,2.36c-3.54,0-5.79-2.43-6.5-5.77h21.28C158.5,101.47,158.56,100.69,158.56,99.9L158.56,99.9z
					 M204.71,107.24c-3.81-0.04-6.87-3.17-6.83-6.98c0-0.12,0.01-0.24,0.01-0.36c-0.24-3.81,2.65-7.09,6.46-7.33
					c0.12-0.01,0.24-0.01,0.36-0.01c3.81,0.04,6.87,3.17,6.83,6.98c0,0.12-0.01,0.24-0.01,0.36c0.24,3.81-2.65,7.09-6.45,7.33
					C204.95,107.23,204.83,107.24,204.71,107.24L204.71,107.24z M204.71,84.16c-8.69,0-15.73,7.04-15.73,15.73
					c0,8.69,7.04,15.73,15.73,15.73c8.69,0,15.73-7.04,15.73-15.73C220.44,91.21,213.4,84.16,204.71,84.16L204.71,84.16z"/>
			</g>
		</g>
	</g>
</g>
</svg>
